<svg width="411" height="174" viewBox="0 0 411 174" fill="none" xmlns="http://www.w3.org/2000/svg">
<path d="M91.65 100.84H68.07L64.29 112H48.18L71.04 48.82H88.86L111.72 112H95.43L91.65 100.84ZM87.69 88.96L79.86 65.83L72.12 88.96H87.69ZM118.767 80.32C118.767 74.08 120.117 68.53 122.817 63.67C125.517 58.75 129.267 54.94 134.067 52.24C138.927 49.48 144.417 48.1 150.537 48.1C158.037 48.1 164.457 50.08 169.797 54.04C175.137 58 178.707 63.4 180.507 70.24H163.587C162.327 67.6 160.527 65.59 158.187 64.21C155.907 62.83 153.297 62.14 150.357 62.14C145.617 62.14 141.777 63.79 138.837 67.09C135.897 70.39 134.427 74.8 134.427 80.32C134.427 85.84 135.897 90.25 138.837 93.55C141.777 96.85 145.617 98.5 150.357 98.5C153.297 98.5 155.907 97.81 158.187 96.43C160.527 95.05 162.327 93.04 163.587 90.4H180.507C178.707 97.24 175.137 102.64 169.797 106.6C164.457 110.5 158.037 112.45 150.537 112.45C144.417 112.45 138.927 111.1 134.067 108.4C129.267 105.64 125.517 101.83 122.817 96.97C120.117 92.11 118.767 86.56 118.767 80.32ZM231.962 100.84H208.382L204.602 112H188.492L211.352 48.82H229.172L252.032 112H235.742L231.962 100.84ZM228.002 88.96L220.172 65.83L212.432 88.96H228.002ZM293.91 112L280.77 88.15H277.08V112H261.69V48.82H287.52C292.5 48.82 296.73 49.69 300.21 51.43C303.75 53.17 306.39 55.57 308.13 58.63C309.87 61.63 310.74 64.99 310.74 68.71C310.74 72.91 309.54 76.66 307.14 79.96C304.8 83.26 301.32 85.6 296.7 86.98L311.28 112H293.91ZM277.08 77.26H286.62C289.44 77.26 291.54 76.57 292.92 75.19C294.36 73.81 295.08 71.86 295.08 69.34C295.08 66.94 294.36 65.05 292.92 63.67C291.54 62.29 289.44 61.6 286.62 61.6H277.08V77.26ZM362.43 100.84H338.85L335.07 112H318.96L341.82 48.82H359.64L382.5 112H366.21L362.43 100.84ZM358.47 88.96L350.64 65.83L342.9 88.96H358.47Z" fill="#F6F7FF"/>
<g clip-path="url(#clip0_914_1701)">
<path d="M91.65 134.84L92.5971 134.519L92.3671 133.84H91.65V134.84ZM68.07 134.84V133.84H67.3529L67.1228 134.519L68.07 134.84ZM64.29 146V147H65.0071L65.2371 146.321L64.29 146ZM48.18 146L47.2397 145.66L46.7547 147H48.18V146ZM71.04 82.82V81.82H70.3384L70.0997 82.4798L71.04 82.82ZM88.86 82.82L89.8003 82.4798L89.5616 81.82H88.86V82.82ZM111.72 146V147H113.145L112.66 145.66L111.72 146ZM95.43 146L94.4828 146.321L94.7129 147H95.43V146ZM87.69 122.96V123.96H89.0843L88.6372 122.639L87.69 122.96ZM79.86 99.83L80.8072 99.5094L79.8545 96.6951L78.9117 99.5127L79.86 99.83ZM72.12 122.96L71.1717 122.643L70.7309 123.96H72.12V122.96ZM91.65 133.84H68.07V135.84H91.65V133.84ZM67.1228 134.519L63.3428 145.679L65.2371 146.321L69.0171 135.161L67.1228 134.519ZM64.29 145H48.18V147H64.29V145ZM49.1203 146.34L71.9803 83.1602L70.0997 82.4798L47.2397 145.66L49.1203 146.34ZM71.04 83.82H88.86V81.82H71.04V83.82ZM87.9197 83.1602L110.78 146.34L112.66 145.66L89.8003 82.4798L87.9197 83.1602ZM111.72 145H95.43V147H111.72V145ZM96.3771 145.679L92.5971 134.519L90.7028 135.161L94.4828 146.321L96.3771 145.679ZM88.6372 122.639L80.8072 99.5094L78.9128 100.151L86.7428 123.281L88.6372 122.639ZM78.9117 99.5127L71.1717 122.643L73.0683 123.277L80.8083 100.147L78.9117 99.5127ZM72.12 123.96H87.69V121.96H72.12V123.96ZM122.817 97.67L123.692 98.1556L123.694 98.1511L122.817 97.67ZM134.067 86.24L134.558 87.1116L134.561 87.1096L134.067 86.24ZM169.797 88.04L170.393 87.2368L169.797 88.04ZM180.507 104.24V105.24H181.805L181.474 103.986L180.507 104.24ZM163.587 104.24L162.685 104.671L162.957 105.24H163.587V104.24ZM158.187 98.21L157.67 99.0656L157.679 99.0714L158.187 98.21ZM138.837 101.09L139.584 101.755L138.837 101.09ZM158.187 130.43L157.679 129.569L157.67 129.575L158.187 130.43ZM163.587 124.4V123.4H162.957L162.685 123.969L163.587 124.4ZM180.507 124.4L181.474 124.654L181.805 123.4H180.507V124.4ZM169.797 140.6L170.387 141.408L170.393 141.403L169.797 140.6ZM134.067 142.4L133.569 143.267L133.575 143.271L133.582 143.274L134.067 142.4ZM122.817 130.97L123.692 130.484L122.817 130.97ZM119.767 114.32C119.767 108.229 121.084 102.85 123.692 98.1556L121.943 97.1844C119.151 102.21 117.767 107.931 117.767 114.32H119.767ZM123.694 98.1511C126.306 93.3915 129.924 89.7182 134.558 87.1116L133.577 85.3684C128.611 88.1618 124.729 92.1085 121.941 97.1889L123.694 98.1511ZM134.561 87.1096C139.257 84.443 144.574 83.1 150.537 83.1V81.1C144.261 81.1 138.598 82.517 133.574 85.3704L134.561 87.1096ZM150.537 83.1C157.852 83.1 164.056 85.0271 169.202 88.8432L170.393 87.2368C164.859 83.1328 158.223 81.1 150.537 81.1V83.1ZM169.202 88.8432C174.347 92.6588 177.794 97.8592 179.54 104.494L181.474 103.986C179.621 96.9408 175.928 91.3412 170.393 87.2368L169.202 88.8432ZM180.507 103.24H163.587V105.24H180.507V103.24ZM164.49 103.809C163.151 101.004 161.22 98.8376 158.695 97.3486L157.679 99.0714C159.835 100.342 161.504 102.196 162.685 104.671L164.49 103.809ZM158.705 97.3545C156.253 95.8704 153.461 95.14 150.357 95.14V97.14C153.134 97.14 155.562 97.7896 157.67 99.0655L158.705 97.3545ZM150.357 95.14C145.355 95.14 141.235 96.895 138.091 100.425L139.584 101.755C142.319 98.685 145.879 97.14 150.357 97.14V95.14ZM138.091 100.425C134.95 103.95 133.427 108.618 133.427 114.32H135.427C135.427 108.982 136.845 104.83 139.584 101.755L138.091 100.425ZM133.427 114.32C133.427 120.022 134.95 124.69 138.091 128.215L139.584 126.885C136.845 123.81 135.427 119.658 135.427 114.32H133.427ZM138.091 128.215C141.235 131.745 145.355 133.5 150.357 133.5V131.5C145.879 131.5 142.319 129.955 139.584 126.885L138.091 128.215ZM150.357 133.5C153.461 133.5 156.253 132.77 158.705 131.285L157.67 129.575C155.562 130.85 153.134 131.5 150.357 131.5V133.5ZM158.695 131.291C161.22 129.802 163.151 127.636 164.49 124.831L162.685 123.969C161.504 126.444 159.835 128.298 157.679 129.569L158.695 131.291ZM163.587 125.4H180.507V123.4H163.587V125.4ZM179.54 124.146C177.794 130.781 174.347 135.981 169.202 139.797L170.393 141.403C175.928 137.299 179.621 131.699 181.474 124.654L179.54 124.146ZM169.208 139.792C164.061 143.551 157.855 145.45 150.537 145.45V147.45C158.22 147.45 164.853 145.449 170.387 141.408L169.208 139.792ZM150.537 145.45C144.57 145.45 139.25 144.135 134.553 141.526L133.582 143.274C138.605 146.065 144.265 147.45 150.537 147.45V145.45ZM134.566 141.533C129.924 138.864 126.304 135.186 123.692 130.484L121.943 131.456C124.731 136.474 128.611 140.416 133.569 143.267L134.566 141.533ZM123.692 130.484C121.084 125.79 119.767 120.411 119.767 114.32H117.767C117.767 120.709 119.151 126.43 121.943 131.456L123.692 130.484ZM231.962 134.84L232.909 134.519L232.679 133.84H231.962V134.84ZM208.382 134.84V133.84H207.665L207.435 134.519L208.382 134.84ZM204.602 146V147H205.319L205.549 146.321L204.602 146ZM188.492 146L187.552 145.66L187.067 147H188.492V146ZM211.352 82.82V81.82H210.65L210.412 82.4798L211.352 82.82ZM229.172 82.82L230.112 82.4798L229.874 81.82H229.172V82.82ZM252.032 146V147H253.457L252.972 145.66L252.032 146ZM235.742 146L234.795 146.321L235.025 147H235.742V146ZM228.002 122.96V123.96H229.396L228.949 122.639L228.002 122.96ZM220.172 99.83L221.119 99.5094L220.167 96.6951L219.224 99.5127L220.172 99.83ZM212.432 122.96L211.484 122.643L211.043 123.96H212.432V122.96ZM231.962 133.84H208.382V135.84H231.962V133.84ZM207.435 134.519L203.655 145.679L205.549 146.321L209.329 135.161L207.435 134.519ZM204.602 145H188.492V147H204.602V145ZM189.432 146.34L212.292 83.1602L210.412 82.4798L187.552 145.66L189.432 146.34ZM211.352 83.82H229.172V81.82H211.352V83.82ZM228.232 83.1602L251.092 146.34L252.972 145.66L230.112 82.4798L228.232 83.1602ZM252.032 145H235.742V147H252.032V145ZM236.689 145.679L232.909 134.519L231.015 135.161L234.795 146.321L236.689 145.679ZM228.949 122.639L221.119 99.5094L219.225 100.151L227.055 123.281L228.949 122.639ZM219.224 99.5127L211.484 122.643L213.38 123.277L221.12 100.147L219.224 99.5127ZM212.432 123.96H228.002V121.96H212.432V123.96ZM293.91 146L293.034 146.483L293.319 147H293.91V146ZM280.77 122.15L281.645 121.667L281.36 121.15H280.77V122.15ZM277.08 122.15V121.15H276.08V122.15H277.08ZM277.08 146V147H278.08V146H277.08ZM261.69 146H260.69V147H261.69V146ZM261.69 82.82V81.82H260.69V82.82H261.69ZM300.21 85.43L299.762 86.3244L299.768 86.3274L300.21 85.43ZM308.13 92.63L307.26 93.1243L307.264 93.1317L308.13 92.63ZM307.14 113.96L306.331 113.372L306.324 113.382L307.14 113.96ZM296.7 120.98L296.413 120.022L295.196 120.386L295.836 121.483L296.7 120.98ZM311.28 146V147H313.02L312.144 145.497L311.28 146ZM277.08 111.26H276.08V112.26H277.08V111.26ZM292.92 109.19L292.228 108.468L292.22 108.475L292.212 108.483L292.92 109.19ZM292.92 97.67L292.212 98.3771L292.22 98.3846L292.228 98.392L292.92 97.67ZM277.08 95.6V94.6H276.08V95.6H277.08ZM294.785 145.517L281.645 121.667L279.894 122.633L293.034 146.483L294.785 145.517ZM280.77 121.15H277.08V123.15H280.77V121.15ZM276.08 122.15V146H278.08V122.15H276.08ZM277.08 145H261.69V147H277.08V145ZM262.69 146V82.82H260.69V146H262.69ZM261.69 83.82H287.52V81.82H261.69V83.82ZM287.52 83.82C292.386 83.82 296.454 84.6705 299.762 86.3244L300.657 84.5356C297.005 82.7095 292.613 81.82 287.52 81.82V83.82ZM299.768 86.3274C303.151 87.9901 305.631 90.2592 307.26 93.1243L308.999 92.1357C307.148 88.8808 304.348 86.3499 300.651 84.5325L299.768 86.3274ZM307.264 93.1317C308.91 95.9682 309.74 99.153 309.74 102.71H311.74C311.74 98.827 310.829 95.2918 308.995 92.1283L307.264 93.1317ZM309.74 102.71C309.74 106.705 308.603 110.248 306.331 113.372L307.948 114.548C310.476 111.072 311.74 107.115 311.74 102.71H309.74ZM306.324 113.382C304.136 116.466 300.862 118.693 296.413 120.022L296.986 121.938C301.777 120.507 305.463 118.054 307.955 114.538L306.324 113.382ZM295.836 121.483L310.416 146.503L312.144 145.497L297.564 120.477L295.836 121.483ZM311.28 145H293.91V147H311.28V145ZM277.08 112.26H286.62V110.26H277.08V112.26ZM286.62 112.26C289.586 112.26 291.989 111.534 293.627 109.897L292.212 108.483C291.09 109.606 289.293 110.26 286.62 110.26V112.26ZM293.611 109.912C295.297 108.297 296.08 106.056 296.08 103.34H294.08C294.08 105.664 293.422 107.323 292.228 108.468L293.611 109.912ZM296.08 103.34C296.08 100.727 295.288 98.5543 293.611 96.948L292.228 98.392C293.432 99.5457 294.08 101.153 294.08 103.34H296.08ZM293.627 96.9629C291.989 95.3256 289.586 94.6 286.62 94.6V96.6C289.293 96.6 291.09 97.2544 292.212 98.3771L293.627 96.9629ZM286.62 94.6H277.08V96.6H286.62V94.6ZM276.08 95.6V111.26H278.08V95.6H276.08ZM362.43 134.84L363.378 134.519L363.148 133.84H362.43V134.84ZM338.85 134.84V133.84H338.133L337.903 134.519L338.85 134.84ZM335.07 146V147H335.788L336.018 146.321L335.07 146ZM318.96 146L318.02 145.66L317.535 147H318.96V146ZM341.82 82.82V81.82H341.119L340.88 82.4798L341.82 82.82ZM359.64 82.82L360.581 82.4798L360.342 81.82H359.64V82.82ZM382.5 146V147H383.926L383.441 145.66L382.5 146ZM366.21 146L365.263 146.321L365.493 147H366.21V146ZM358.47 122.96V123.96H359.865L359.418 122.639L358.47 122.96ZM350.64 99.83L351.588 99.5094L350.635 96.6951L349.692 99.5127L350.64 99.83ZM342.9 122.96L341.952 122.643L341.511 123.96H342.9V122.96ZM362.43 133.84H338.85V135.84H362.43V133.84ZM337.903 134.519L334.123 145.679L336.018 146.321L339.798 135.161L337.903 134.519ZM335.07 145H318.96V147H335.07V145ZM319.901 146.34L342.761 83.1602L340.88 82.4798L318.02 145.66L319.901 146.34ZM341.82 83.82H359.64V81.82H341.82V83.82ZM358.7 83.1602L381.56 146.34L383.441 145.66L360.581 82.4798L358.7 83.1602ZM382.5 145H366.21V147H382.5V145ZM367.158 145.679L363.378 134.519L361.483 135.161L365.263 146.321L367.158 145.679ZM359.418 122.639L351.588 99.5094L349.693 100.151L357.523 123.281L359.418 122.639ZM349.692 99.5127L341.952 122.643L343.849 123.277L351.589 100.147L349.692 99.5127ZM342.9 123.96H358.47V121.96H342.9V123.96Z" fill="#F4F5FE"/>
</g>
<g clip-path="url(#clip1_914_1701)">
<path d="M91.65 157.84L92.5971 157.519L92.3671 156.84H91.65V157.84ZM68.07 157.84V156.84H67.3529L67.1228 157.519L68.07 157.84ZM64.29 169V170H65.0071L65.2371 169.321L64.29 169ZM48.18 169L47.2397 168.66L46.7547 170H48.18V169ZM71.04 105.82V104.82H70.3384L70.0997 105.48L71.04 105.82ZM88.86 105.82L89.8003 105.48L89.5616 104.82H88.86V105.82ZM111.72 169V170H113.145L112.66 168.66L111.72 169ZM95.43 169L94.4828 169.321L94.7129 170H95.43V169ZM87.69 145.96V146.96H89.0843L88.6372 145.639L87.69 145.96ZM79.86 122.83L80.8072 122.509L79.8545 119.695L78.9117 122.513L79.86 122.83ZM72.12 145.96L71.1717 145.643L70.7309 146.96H72.12V145.96ZM91.65 156.84H68.07V158.84H91.65V156.84ZM67.1228 157.519L63.3428 168.679L65.2371 169.321L69.0171 158.161L67.1228 157.519ZM64.29 168H48.18V170H64.29V168ZM49.1203 169.34L71.9803 106.16L70.0997 105.48L47.2397 168.66L49.1203 169.34ZM71.04 106.82H88.86V104.82H71.04V106.82ZM87.9197 106.16L110.78 169.34L112.66 168.66L89.8003 105.48L87.9197 106.16ZM111.72 168H95.43V170H111.72V168ZM96.3771 168.679L92.5971 157.519L90.7028 158.161L94.4828 169.321L96.3771 168.679ZM88.6372 145.639L80.8072 122.509L78.9128 123.151L86.7428 146.281L88.6372 145.639ZM78.9117 122.513L71.1717 145.643L73.0683 146.277L80.8083 123.147L78.9117 122.513ZM72.12 146.96H87.69V144.96H72.12V146.96ZM122.817 120.67L123.692 121.156L123.694 121.151L122.817 120.67ZM134.067 109.24L134.558 110.112L134.561 110.11L134.067 109.24ZM169.797 111.04L170.393 110.237L169.797 111.04ZM180.507 127.24V128.24H181.805L181.474 126.986L180.507 127.24ZM163.587 127.24L162.685 127.671L162.957 128.24H163.587V127.24ZM158.187 121.21L157.67 122.066L157.679 122.071L158.187 121.21ZM138.837 124.09L139.584 124.755L138.837 124.09ZM158.187 153.43L157.679 152.569L157.67 152.575L158.187 153.43ZM163.587 147.4V146.4H162.957L162.685 146.969L163.587 147.4ZM180.507 147.4L181.474 147.654L181.805 146.4H180.507V147.4ZM169.797 163.6L170.387 164.408L170.393 164.403L169.797 163.6ZM134.067 165.4L133.569 166.267L133.575 166.271L133.582 166.274L134.067 165.4ZM122.817 153.97L123.692 153.484L122.817 153.97ZM119.767 137.32C119.767 131.229 121.084 125.85 123.692 121.156L121.943 120.184C119.151 125.21 117.767 130.931 117.767 137.32H119.767ZM123.694 121.151C126.306 116.391 129.924 112.718 134.558 110.112L133.577 108.368C128.611 111.162 124.729 115.109 121.941 120.189L123.694 121.151ZM134.561 110.11C139.257 107.443 144.574 106.1 150.537 106.1V104.1C144.261 104.1 138.598 105.517 133.574 108.37L134.561 110.11ZM150.537 106.1C157.852 106.1 164.056 108.027 169.202 111.843L170.393 110.237C164.859 106.133 158.223 104.1 150.537 104.1V106.1ZM169.202 111.843C174.347 115.659 177.794 120.859 179.54 127.494L181.474 126.986C179.621 119.941 175.928 114.341 170.393 110.237L169.202 111.843ZM180.507 126.24H163.587V128.24H180.507V126.24ZM164.49 126.809C163.151 124.004 161.22 121.838 158.695 120.349L157.679 122.071C159.835 123.342 161.504 125.196 162.685 127.671L164.49 126.809ZM158.705 120.354C156.253 118.87 153.461 118.14 150.357 118.14V120.14C153.134 120.14 155.562 120.79 157.67 122.065L158.705 120.354ZM150.357 118.14C145.355 118.14 141.235 119.895 138.091 123.425L139.584 124.755C142.319 121.685 145.879 120.14 150.357 120.14V118.14ZM138.091 123.425C134.95 126.95 133.427 131.618 133.427 137.32H135.427C135.427 131.982 136.845 127.83 139.584 124.755L138.091 123.425ZM133.427 137.32C133.427 143.022 134.95 147.69 138.091 151.215L139.584 149.885C136.845 146.81 135.427 142.658 135.427 137.32H133.427ZM138.091 151.215C141.235 154.745 145.355 156.5 150.357 156.5V154.5C145.879 154.5 142.319 152.955 139.584 149.885L138.091 151.215ZM150.357 156.5C153.461 156.5 156.253 155.77 158.705 154.285L157.67 152.575C155.562 153.85 153.134 154.5 150.357 154.5V156.5ZM158.695 154.291C161.22 152.802 163.151 150.636 164.49 147.831L162.685 146.969C161.504 149.444 159.835 151.298 157.679 152.569L158.695 154.291ZM163.587 148.4H180.507V146.4H163.587V148.4ZM179.54 147.146C177.794 153.781 174.347 158.981 169.202 162.797L170.393 164.403C175.928 160.299 179.621 154.699 181.474 147.654L179.54 147.146ZM169.208 162.792C164.061 166.551 157.855 168.45 150.537 168.45V170.45C158.22 170.45 164.853 168.449 170.387 164.408L169.208 162.792ZM150.537 168.45C144.57 168.45 139.25 167.135 134.553 164.526L133.582 166.274C138.605 169.065 144.265 170.45 150.537 170.45V168.45ZM134.566 164.533C129.924 161.864 126.304 158.186 123.692 153.484L121.943 154.456C124.731 159.474 128.611 163.416 133.569 166.267L134.566 164.533ZM123.692 153.484C121.084 148.79 119.767 143.411 119.767 137.32H117.767C117.767 143.709 119.151 149.43 121.943 154.456L123.692 153.484ZM231.962 157.84L232.909 157.519L232.679 156.84H231.962V157.84ZM208.382 157.84V156.84H207.665L207.435 157.519L208.382 157.84ZM204.602 169V170H205.319L205.549 169.321L204.602 169ZM188.492 169L187.552 168.66L187.067 170H188.492V169ZM211.352 105.82V104.82H210.65L210.412 105.48L211.352 105.82ZM229.172 105.82L230.112 105.48L229.874 104.82H229.172V105.82ZM252.032 169V170H253.457L252.972 168.66L252.032 169ZM235.742 169L234.795 169.321L235.025 170H235.742V169ZM228.002 145.96V146.96H229.396L228.949 145.639L228.002 145.96ZM220.172 122.83L221.119 122.509L220.167 119.695L219.224 122.513L220.172 122.83ZM212.432 145.96L211.484 145.643L211.043 146.96H212.432V145.96ZM231.962 156.84H208.382V158.84H231.962V156.84ZM207.435 157.519L203.655 168.679L205.549 169.321L209.329 158.161L207.435 157.519ZM204.602 168H188.492V170H204.602V168ZM189.432 169.34L212.292 106.16L210.412 105.48L187.552 168.66L189.432 169.34ZM211.352 106.82H229.172V104.82H211.352V106.82ZM228.232 106.16L251.092 169.34L252.972 168.66L230.112 105.48L228.232 106.16ZM252.032 168H235.742V170H252.032V168ZM236.689 168.679L232.909 157.519L231.015 158.161L234.795 169.321L236.689 168.679ZM228.949 145.639L221.119 122.509L219.225 123.151L227.055 146.281L228.949 145.639ZM219.224 122.513L211.484 145.643L213.38 146.277L221.12 123.147L219.224 122.513ZM212.432 146.96H228.002V144.96H212.432V146.96ZM293.91 169L293.034 169.483L293.319 170H293.91V169ZM280.77 145.15L281.645 144.667L281.36 144.15H280.77V145.15ZM277.08 145.15V144.15H276.08V145.15H277.08ZM277.08 169V170H278.08V169H277.08ZM261.69 169H260.69V170H261.69V169ZM261.69 105.82V104.82H260.69V105.82H261.69ZM300.21 108.43L299.762 109.324L299.768 109.327L300.21 108.43ZM308.13 115.63L307.26 116.124L307.264 116.132L308.13 115.63ZM307.14 136.96L306.331 136.372L306.324 136.382L307.14 136.96ZM296.7 143.98L296.413 143.022L295.196 143.386L295.836 144.483L296.7 143.98ZM311.28 169V170H313.02L312.144 168.497L311.28 169ZM277.08 134.26H276.08V135.26H277.08V134.26ZM292.92 132.19L292.228 131.468L292.22 131.475L292.212 131.483L292.92 132.19ZM292.92 120.67L292.212 121.377L292.22 121.385L292.228 121.392L292.92 120.67ZM277.08 118.6V117.6H276.08V118.6H277.08ZM294.785 168.517L281.645 144.667L279.894 145.633L293.034 169.483L294.785 168.517ZM280.77 144.15H277.08V146.15H280.77V144.15ZM276.08 145.15V169H278.08V145.15H276.08ZM277.08 168H261.69V170H277.08V168ZM262.69 169V105.82H260.69V169H262.69ZM261.69 106.82H287.52V104.82H261.69V106.82ZM287.52 106.82C292.386 106.82 296.454 107.671 299.762 109.324L300.657 107.536C297.005 105.709 292.613 104.82 287.52 104.82V106.82ZM299.768 109.327C303.151 110.99 305.631 113.259 307.26 116.124L308.999 115.136C307.148 111.881 304.348 109.35 300.651 107.533L299.768 109.327ZM307.264 116.132C308.91 118.968 309.74 122.153 309.74 125.71H311.74C311.74 121.827 310.829 118.292 308.995 115.128L307.264 116.132ZM309.74 125.71C309.74 129.705 308.603 133.248 306.331 136.372L307.948 137.548C310.476 134.072 311.74 130.115 311.74 125.71H309.74ZM306.324 136.382C304.136 139.466 300.862 141.693 296.413 143.022L296.986 144.938C301.777 143.507 305.463 141.054 307.955 137.538L306.324 136.382ZM295.836 144.483L310.416 169.503L312.144 168.497L297.564 143.477L295.836 144.483ZM311.28 168H293.91V170H311.28V168ZM277.08 135.26H286.62V133.26H277.08V135.26ZM286.62 135.26C289.586 135.26 291.989 134.534 293.627 132.897L292.212 131.483C291.09 132.606 289.293 133.26 286.62 133.26V135.26ZM293.611 132.912C295.297 131.297 296.08 129.056 296.08 126.34H294.08C294.08 128.664 293.422 130.323 292.228 131.468L293.611 132.912ZM296.08 126.34C296.08 123.727 295.288 121.554 293.611 119.948L292.228 121.392C293.432 122.546 294.08 124.153 294.08 126.34H296.08ZM293.627 119.963C291.989 118.326 289.586 117.6 286.62 117.6V119.6C289.293 119.6 291.09 120.254 292.212 121.377L293.627 119.963ZM286.62 117.6H277.08V119.6H286.62V117.6ZM276.08 118.6V134.26H278.08V118.6H276.08ZM362.43 157.84L363.378 157.519L363.148 156.84H362.43V157.84ZM338.85 157.84V156.84H338.133L337.903 157.519L338.85 157.84ZM335.07 169V170H335.788L336.018 169.321L335.07 169ZM318.96 169L318.02 168.66L317.535 170H318.96V169ZM341.82 105.82V104.82H341.119L340.88 105.48L341.82 105.82ZM359.64 105.82L360.581 105.48L360.342 104.82H359.64V105.82ZM382.5 169V170H383.926L383.441 168.66L382.5 169ZM366.21 169L365.263 169.321L365.493 170H366.21V169ZM358.47 145.96V146.96H359.865L359.418 145.639L358.47 145.96ZM350.64 122.83L351.588 122.509L350.635 119.695L349.692 122.513L350.64 122.83ZM342.9 145.96L341.952 145.643L341.511 146.96H342.9V145.96ZM362.43 156.84H338.85V158.84H362.43V156.84ZM337.903 157.519L334.123 168.679L336.018 169.321L339.798 158.161L337.903 157.519ZM335.07 168H318.96V170H335.07V168ZM319.901 169.34L342.761 106.16L340.88 105.48L318.02 168.66L319.901 169.34ZM341.82 106.82H359.64V104.82H341.82V106.82ZM358.7 106.16L381.56 169.34L383.441 168.66L360.581 105.48L358.7 106.16ZM382.5 168H366.21V170H382.5V168ZM367.158 168.679L363.378 157.519L361.483 158.161L365.263 169.321L367.158 168.679ZM359.418 145.639L351.588 122.509L349.693 123.151L357.523 146.281L359.418 145.639ZM349.692 122.513L341.952 145.643L343.849 146.277L351.589 123.147L349.692 122.513ZM342.9 146.96H358.47V144.96H342.9V146.96Z" fill="#F4F5FE"/>
</g>
<line x1="101.291" y1="1.41421" x2="33.0713" y2="69.6343" stroke="white" stroke-width="2" stroke-linecap="round"/>
<line x1="54" y1="32.5343" x2="1.41422" y2="85.1201" stroke="white" stroke-width="2" stroke-linecap="round"/>
<defs>
<clipPath id="clip0_914_1701">
<rect width="364" height="37" fill="white" transform="translate(46.74 114)"/>
</clipPath>
<clipPath id="clip1_914_1701">
<rect width="364" height="21" fill="white" transform="translate(46.74 153)"/>
</clipPath>
</defs>
</svg>
