<?xml version="1.0" encoding="UTF-8"?>
<svg xmlns="http://www.w3.org/2000/svg" xmlns:xlink="http://www.w3.org/1999/xlink" width="16px" height="16px" viewBox="0 0 16 16" version="1.1">
<g id="surface1">
<path style=" stroke:none;fill-rule:nonzero;fill:rgb(96.862745%,33.72549%,0%);fill-opacity:1;" d="M 8 1.335938 C 4.324219 1.335938 1.335938 4.324219 1.335938 8 C 1.335938 11.675781 4.324219 14.664062 8 14.664062 C 11.675781 14.664062 14.664062 11.675781 14.664062 8 C 14.664062 4.324219 11.675781 1.335938 8 1.335938 Z M 10.851562 6.851562 L 7.523438 10.1875 C 7.421875 10.285156 7.296875 10.335938 7.164062 10.335938 C 7.039062 10.335938 6.914062 10.285156 6.8125 10.1875 L 5.148438 8.523438 C 4.949219 8.324219 4.949219 8.007812 5.148438 7.8125 C 5.339844 7.617188 5.660156 7.617188 5.851562 7.8125 L 7.164062 9.125 L 10.148438 6.148438 C 10.339844 5.949219 10.660156 5.949219 10.851562 6.148438 C 11.050781 6.339844 11.050781 6.660156 10.851562 6.851562 Z M 10.851562 6.851562 "/>
</g>
</svg>
