<svg width="411" height="174" viewBox="0 0 411 174" fill="none" xmlns="http://www.w3.org/2000/svg">
<path d="M88.95 112L67.71 84.1V112H52.32V48.82H67.71V76.54L88.77 48.82H106.86L82.38 79.78L107.76 112H88.95ZM157.104 100.84H133.524L129.744 112H113.634L136.494 48.82H154.314L177.174 112H160.884L157.104 100.84ZM153.144 88.96L145.314 65.83L137.574 88.96H153.144ZM219.051 112L205.911 88.15H202.221V112H186.831V48.82H212.661C217.641 48.82 221.871 49.69 225.351 51.43C228.891 53.17 231.531 55.57 233.271 58.63C235.011 61.63 235.881 64.99 235.881 68.71C235.881 72.91 234.681 76.66 232.281 79.96C229.941 83.26 226.461 85.6 221.841 86.98L236.421 112H219.051ZM202.221 77.26H211.761C214.581 77.26 216.681 76.57 218.061 75.19C219.501 73.81 220.221 71.86 220.221 69.34C220.221 66.94 219.501 65.05 218.061 63.67C216.681 62.29 214.581 61.6 211.761 61.6H202.221V77.26ZM263.632 48.82V112H248.242V48.82H263.632ZM309.705 112L296.565 88.15H292.875V112H277.485V48.82H303.315C308.295 48.82 312.525 49.69 316.005 51.43C319.545 53.17 322.185 55.57 323.925 58.63C325.665 61.63 326.535 64.99 326.535 68.71C326.535 72.91 325.335 76.66 322.935 79.96C320.595 83.26 317.115 85.6 312.495 86.98L327.075 112H309.705ZM292.875 77.26H302.415C305.235 77.26 307.335 76.57 308.715 75.19C310.155 73.81 310.875 71.86 310.875 69.34C310.875 66.94 310.155 65.05 308.715 63.67C307.335 62.29 305.235 61.6 302.415 61.6H292.875V77.26Z" fill="#F6F7FF"/>
<g clip-path="url(#clip0_1312_1074)">
<mask id="path-2-outside-1_1312_1074" maskUnits="userSpaceOnUse" x="50.74" y="81" width="279" height="66" fill="black">
<rect fill="white" x="50.74" y="81" width="279" height="66"/>
<path d="M88.95 146L67.71 118.1V146H52.32V82.82H67.71V110.54L88.77 82.82H106.86L82.38 113.78L107.76 146H88.95ZM157.104 134.84H133.524L129.744 146H113.634L136.494 82.82H154.314L177.174 146H160.884L157.104 134.84ZM153.144 122.96L145.314 99.83L137.574 122.96H153.144ZM219.051 146L205.911 122.15H202.221V146H186.831V82.82H212.661C217.641 82.82 221.871 83.69 225.351 85.43C228.891 87.17 231.531 89.57 233.271 92.63C235.011 95.63 235.881 98.99 235.881 102.71C235.881 106.91 234.681 110.66 232.281 113.96C229.941 117.26 226.461 119.6 221.841 120.98L236.421 146H219.051ZM202.221 111.26H211.761C214.581 111.26 216.681 110.57 218.061 109.19C219.501 107.81 220.221 105.86 220.221 103.34C220.221 100.94 219.501 99.05 218.061 97.67C216.681 96.29 214.581 95.6 211.761 95.6H202.221V111.26ZM263.632 82.82V146H248.242V82.82H263.632ZM309.705 146L296.565 122.15H292.875V146H277.485V82.82H303.315C308.295 82.82 312.525 83.69 316.005 85.43C319.545 87.17 322.185 89.57 323.925 92.63C325.665 95.63 326.535 98.99 326.535 102.71C326.535 106.91 325.335 110.66 322.935 113.96C320.595 117.26 317.115 119.6 312.495 120.98L327.075 146H309.705ZM292.875 111.26H302.415C305.235 111.26 307.335 110.57 308.715 109.19C310.155 107.81 310.875 105.86 310.875 103.34C310.875 100.94 310.155 99.05 308.715 97.67C307.335 96.29 305.235 95.6 302.415 95.6H292.875V111.26Z"/>
</mask>
<path d="M88.95 146L88.1543 146.606L88.4545 147H88.95V146ZM67.71 118.1L68.5057 117.494L66.71 115.136V118.1H67.71ZM67.71 146V147H68.71V146H67.71ZM52.32 146H51.32V147H52.32V146ZM52.32 82.82V81.82H51.32V82.82H52.32ZM67.71 82.82H68.71V81.82H67.71V82.82ZM67.71 110.54H66.71V113.509L68.5063 111.145L67.71 110.54ZM88.77 82.82V81.82H88.2739L87.9737 82.215L88.77 82.82ZM106.86 82.82L107.644 83.4402L108.926 81.82H106.86V82.82ZM82.38 113.78L81.5956 113.16L81.1061 113.779L81.5944 114.399L82.38 113.78ZM107.76 146V147H109.821L108.546 145.381L107.76 146ZM89.7457 145.394L68.5057 117.494L66.9143 118.706L88.1543 146.606L89.7457 145.394ZM66.71 118.1V146H68.71V118.1H66.71ZM67.71 145H52.32V147H67.71V145ZM53.32 146V82.82H51.32V146H53.32ZM52.32 83.82H67.71V81.82H52.32V83.82ZM66.71 82.82V110.54H68.71V82.82H66.71ZM68.5063 111.145L89.5663 83.425L87.9737 82.215L66.9137 109.935L68.5063 111.145ZM88.77 83.82H106.86V81.82H88.77V83.82ZM106.076 82.1998L81.5956 113.16L83.1644 114.4L107.644 83.4402L106.076 82.1998ZM81.5944 114.399L106.974 146.619L108.546 145.381L83.1655 113.161L81.5944 114.399ZM107.76 145H88.95V147H107.76V145ZM157.104 134.84L158.051 134.519L157.821 133.84H157.104V134.84ZM133.524 134.84V133.84H132.807L132.577 134.519L133.524 134.84ZM129.744 146V147H130.461L130.691 146.321L129.744 146ZM113.634 146L112.694 145.66L112.209 147H113.634V146ZM136.494 82.82V81.82H135.792L135.554 82.4798L136.494 82.82ZM154.314 82.82L155.254 82.4798L155.016 81.82H154.314V82.82ZM177.174 146V147H178.599L178.114 145.66L177.174 146ZM160.884 146L159.937 146.321L160.167 147H160.884V146ZM153.144 122.96V123.96H154.538L154.091 122.639L153.144 122.96ZM145.314 99.83L146.261 99.5094L145.308 96.6951L144.366 99.5127L145.314 99.83ZM137.574 122.96L136.626 122.643L136.185 123.96H137.574V122.96ZM157.104 133.84H133.524V135.84H157.104V133.84ZM132.577 134.519L128.797 145.679L130.691 146.321L134.471 135.161L132.577 134.519ZM129.744 145H113.634V147H129.744V145ZM114.574 146.34L137.434 83.1602L135.554 82.4798L112.694 145.66L114.574 146.34ZM136.494 83.82H154.314V81.82H136.494V83.82ZM153.374 83.1602L176.234 146.34L178.114 145.66L155.254 82.4798L153.374 83.1602ZM177.174 145H160.884V147H177.174V145ZM161.831 145.679L158.051 134.519L156.157 135.161L159.937 146.321L161.831 145.679ZM154.091 122.639L146.261 99.5094L144.367 100.151L152.197 123.281L154.091 122.639ZM144.366 99.5127L136.626 122.643L138.522 123.277L146.262 100.147L144.366 99.5127ZM137.574 123.96H153.144V121.96H137.574V123.96ZM219.051 146L218.175 146.483L218.461 147H219.051V146ZM205.911 122.15L206.787 121.667L206.502 121.15H205.911V122.15ZM202.221 122.15V121.15H201.221V122.15H202.221ZM202.221 146V147H203.221V146H202.221ZM186.831 146H185.831V147H186.831V146ZM186.831 82.82V81.82H185.831V82.82H186.831ZM225.351 85.43L224.904 86.3244L224.91 86.3274L225.351 85.43ZM233.271 92.63L232.402 93.1243L232.406 93.1317L233.271 92.63ZM232.281 113.96L231.473 113.372L231.466 113.382L232.281 113.96ZM221.841 120.98L221.555 120.022L220.337 120.386L220.977 121.483L221.841 120.98ZM236.421 146V147H238.161L237.285 145.497L236.421 146ZM202.221 111.26H201.221V112.26H202.221V111.26ZM218.061 109.19L217.369 108.468L217.362 108.475L217.354 108.483L218.061 109.19ZM218.061 97.67L217.354 98.3771L217.362 98.3846L217.369 98.392L218.061 97.67ZM202.221 95.6V94.6H201.221V95.6H202.221ZM219.927 145.517L206.787 121.667L205.035 122.633L218.175 146.483L219.927 145.517ZM205.911 121.15H202.221V123.15H205.911V121.15ZM201.221 122.15V146H203.221V122.15H201.221ZM202.221 145H186.831V147H202.221V145ZM187.831 146V82.82H185.831V146H187.831ZM186.831 83.82H212.661V81.82H186.831V83.82ZM212.661 83.82C217.528 83.82 221.596 84.6705 224.904 86.3244L225.799 84.5356C222.146 82.7095 217.754 81.82 212.661 81.82V83.82ZM224.91 86.3274C228.293 87.9901 230.773 90.2592 232.402 93.1243L234.141 92.1357C232.29 88.8808 229.49 86.3499 225.792 84.5325L224.91 86.3274ZM232.406 93.1317C234.051 95.9682 234.881 99.153 234.881 102.71H236.881C236.881 98.827 235.971 95.2918 234.136 92.1283L232.406 93.1317ZM234.881 102.71C234.881 106.705 233.744 110.248 231.473 113.372L233.09 114.548C235.618 111.072 236.881 107.115 236.881 102.71H234.881ZM231.466 113.382C229.278 116.466 226.004 118.693 221.555 120.022L222.128 121.938C226.919 120.507 230.604 118.054 233.097 114.538L231.466 113.382ZM220.977 121.483L235.557 146.503L237.285 145.497L222.705 120.477L220.977 121.483ZM236.421 145H219.051V147H236.421V145ZM202.221 112.26H211.761V110.26H202.221V112.26ZM211.761 112.26C214.728 112.26 217.131 111.534 218.768 109.897L217.354 108.483C216.231 109.606 214.434 110.26 211.761 110.26V112.26ZM218.753 109.912C220.439 108.297 221.221 106.056 221.221 103.34H219.221C219.221 105.664 218.564 107.323 217.369 108.468L218.753 109.912ZM221.221 103.34C221.221 100.727 220.429 98.5543 218.753 96.948L217.369 98.392C218.573 99.5457 219.221 101.153 219.221 103.34H221.221ZM218.768 96.9629C217.131 95.3256 214.728 94.6 211.761 94.6V96.6C214.434 96.6 216.231 97.2544 217.354 98.3771L218.768 96.9629ZM211.761 94.6H202.221V96.6H211.761V94.6ZM201.221 95.6V111.26H203.221V95.6H201.221ZM263.632 82.82H264.632V81.82H263.632V82.82ZM263.632 146V147H264.632V146H263.632ZM248.242 146H247.242V147H248.242V146ZM248.242 82.82V81.82H247.242V82.82H248.242ZM262.632 82.82V146H264.632V82.82H262.632ZM263.632 145H248.242V147H263.632V145ZM249.242 146V82.82H247.242V146H249.242ZM248.242 83.82H263.632V81.82H248.242V83.82ZM309.705 146L308.829 146.483L309.114 147H309.705V146ZM296.565 122.15L297.441 121.667L297.156 121.15H296.565V122.15ZM292.875 122.15V121.15H291.875V122.15H292.875ZM292.875 146V147H293.875V146H292.875ZM277.485 146H276.485V147H277.485V146ZM277.485 82.82V81.82H276.485V82.82H277.485ZM316.005 85.43L315.558 86.3244L315.564 86.3274L316.005 85.43ZM323.925 92.63L323.056 93.1243L323.06 93.1317L323.925 92.63ZM322.935 113.96L322.126 113.372L322.119 113.382L322.935 113.96ZM312.495 120.98L312.209 120.022L310.991 120.386L311.631 121.483L312.495 120.98ZM327.075 146V147H328.815L327.939 145.497L327.075 146ZM292.875 111.26H291.875V112.26H292.875V111.26ZM308.715 109.19L308.023 108.468L308.016 108.475L308.008 108.483L308.715 109.19ZM308.715 97.67L308.008 98.3771L308.016 98.3846L308.023 98.392L308.715 97.67ZM292.875 95.6V94.6H291.875V95.6H292.875ZM310.581 145.517L297.441 121.667L295.689 122.633L308.829 146.483L310.581 145.517ZM296.565 121.15H292.875V123.15H296.565V121.15ZM291.875 122.15V146H293.875V122.15H291.875ZM292.875 145H277.485V147H292.875V145ZM278.485 146V82.82H276.485V146H278.485ZM277.485 83.82H303.315V81.82H277.485V83.82ZM303.315 83.82C308.182 83.82 312.25 84.6705 315.558 86.3244L316.452 84.5356C312.8 82.7095 308.408 81.82 303.315 81.82V83.82ZM315.564 86.3274C318.947 87.9901 321.427 90.2592 323.056 93.1243L324.795 92.1357C322.944 88.8808 320.144 86.3499 316.446 84.5325L315.564 86.3274ZM323.06 93.1317C324.705 95.9682 325.535 99.153 325.535 102.71H327.535C327.535 98.827 326.625 95.2918 324.79 92.1283L323.06 93.1317ZM325.535 102.71C325.535 106.705 324.398 110.248 322.126 113.372L323.744 114.548C326.272 111.072 327.535 107.115 327.535 102.71H325.535ZM322.119 113.382C319.932 116.466 316.658 118.693 312.209 120.022L312.781 121.938C317.573 120.507 321.258 118.054 323.751 114.538L322.119 113.382ZM311.631 121.483L326.211 146.503L327.939 145.497L313.359 120.477L311.631 121.483ZM327.075 145H309.705V147H327.075V145ZM292.875 112.26H302.415V110.26H292.875V112.26ZM302.415 112.26C305.382 112.26 307.785 111.534 309.422 109.897L308.008 108.483C306.885 109.606 305.088 110.26 302.415 110.26V112.26ZM309.407 109.912C311.093 108.297 311.875 106.056 311.875 103.34H309.875C309.875 105.664 309.218 107.323 308.023 108.468L309.407 109.912ZM311.875 103.34C311.875 100.727 311.083 98.5543 309.407 96.948L308.023 98.392C309.227 99.5457 309.875 101.153 309.875 103.34H311.875ZM309.422 96.9629C307.785 95.3256 305.382 94.6 302.415 94.6V96.6C305.088 96.6 306.885 97.2544 308.008 98.3771L309.422 96.9629ZM302.415 94.6H292.875V96.6H302.415V94.6ZM291.875 95.6V111.26H293.875V95.6H291.875Z" fill="#F4F5FE" mask="url(#path-2-outside-1_1312_1074)"/>
</g>
<g clip-path="url(#clip1_1312_1074)">
<mask id="path-4-outside-2_1312_1074" maskUnits="userSpaceOnUse" x="50.74" y="104" width="279" height="66" fill="black">
<rect fill="white" x="50.74" y="104" width="279" height="66"/>
<path d="M88.95 169L67.71 141.1V169H52.32V105.82H67.71V133.54L88.77 105.82H106.86L82.38 136.78L107.76 169H88.95ZM157.104 157.84H133.524L129.744 169H113.634L136.494 105.82H154.314L177.174 169H160.884L157.104 157.84ZM153.144 145.96L145.314 122.83L137.574 145.96H153.144ZM219.051 169L205.911 145.15H202.221V169H186.831V105.82H212.661C217.641 105.82 221.871 106.69 225.351 108.43C228.891 110.17 231.531 112.57 233.271 115.63C235.011 118.63 235.881 121.99 235.881 125.71C235.881 129.91 234.681 133.66 232.281 136.96C229.941 140.26 226.461 142.6 221.841 143.98L236.421 169H219.051ZM202.221 134.26H211.761C214.581 134.26 216.681 133.57 218.061 132.19C219.501 130.81 220.221 128.86 220.221 126.34C220.221 123.94 219.501 122.05 218.061 120.67C216.681 119.29 214.581 118.6 211.761 118.6H202.221V134.26ZM263.632 105.82V169H248.242V105.82H263.632ZM309.705 169L296.565 145.15H292.875V169H277.485V105.82H303.315C308.295 105.82 312.525 106.69 316.005 108.43C319.545 110.17 322.185 112.57 323.925 115.63C325.665 118.63 326.535 121.99 326.535 125.71C326.535 129.91 325.335 133.66 322.935 136.96C320.595 140.26 317.115 142.6 312.495 143.98L327.075 169H309.705ZM292.875 134.26H302.415C305.235 134.26 307.335 133.57 308.715 132.19C310.155 130.81 310.875 128.86 310.875 126.34C310.875 123.94 310.155 122.05 308.715 120.67C307.335 119.29 305.235 118.6 302.415 118.6H292.875V134.26Z"/>
</mask>
<path d="M88.95 169L88.1543 169.606L88.4545 170H88.95V169ZM67.71 141.1L68.5057 140.494L66.71 138.136V141.1H67.71ZM67.71 169V170H68.71V169H67.71ZM52.32 169H51.32V170H52.32V169ZM52.32 105.82V104.82H51.32V105.82H52.32ZM67.71 105.82H68.71V104.82H67.71V105.82ZM67.71 133.54H66.71V136.509L68.5063 134.145L67.71 133.54ZM88.77 105.82V104.82H88.2739L87.9737 105.215L88.77 105.82ZM106.86 105.82L107.644 106.44L108.926 104.82H106.86V105.82ZM82.38 136.78L81.5956 136.16L81.1061 136.779L81.5944 137.399L82.38 136.78ZM107.76 169V170H109.821L108.546 168.381L107.76 169ZM89.7457 168.394L68.5057 140.494L66.9143 141.706L88.1543 169.606L89.7457 168.394ZM66.71 141.1V169H68.71V141.1H66.71ZM67.71 168H52.32V170H67.71V168ZM53.32 169V105.82H51.32V169H53.32ZM52.32 106.82H67.71V104.82H52.32V106.82ZM66.71 105.82V133.54H68.71V105.82H66.71ZM68.5063 134.145L89.5663 106.425L87.9737 105.215L66.9137 132.935L68.5063 134.145ZM88.77 106.82H106.86V104.82H88.77V106.82ZM106.076 105.2L81.5956 136.16L83.1644 137.4L107.644 106.44L106.076 105.2ZM81.5944 137.399L106.974 169.619L108.546 168.381L83.1655 136.161L81.5944 137.399ZM107.76 168H88.95V170H107.76V168ZM157.104 157.84L158.051 157.519L157.821 156.84H157.104V157.84ZM133.524 157.84V156.84H132.807L132.577 157.519L133.524 157.84ZM129.744 169V170H130.461L130.691 169.321L129.744 169ZM113.634 169L112.694 168.66L112.209 170H113.634V169ZM136.494 105.82V104.82H135.792L135.554 105.48L136.494 105.82ZM154.314 105.82L155.254 105.48L155.016 104.82H154.314V105.82ZM177.174 169V170H178.599L178.114 168.66L177.174 169ZM160.884 169L159.937 169.321L160.167 170H160.884V169ZM153.144 145.96V146.96H154.538L154.091 145.639L153.144 145.96ZM145.314 122.83L146.261 122.509L145.308 119.695L144.366 122.513L145.314 122.83ZM137.574 145.96L136.626 145.643L136.185 146.96H137.574V145.96ZM157.104 156.84H133.524V158.84H157.104V156.84ZM132.577 157.519L128.797 168.679L130.691 169.321L134.471 158.161L132.577 157.519ZM129.744 168H113.634V170H129.744V168ZM114.574 169.34L137.434 106.16L135.554 105.48L112.694 168.66L114.574 169.34ZM136.494 106.82H154.314V104.82H136.494V106.82ZM153.374 106.16L176.234 169.34L178.114 168.66L155.254 105.48L153.374 106.16ZM177.174 168H160.884V170H177.174V168ZM161.831 168.679L158.051 157.519L156.157 158.161L159.937 169.321L161.831 168.679ZM154.091 145.639L146.261 122.509L144.367 123.151L152.197 146.281L154.091 145.639ZM144.366 122.513L136.626 145.643L138.522 146.277L146.262 123.147L144.366 122.513ZM137.574 146.96H153.144V144.96H137.574V146.96ZM219.051 169L218.175 169.483L218.461 170H219.051V169ZM205.911 145.15L206.787 144.667L206.502 144.15H205.911V145.15ZM202.221 145.15V144.15H201.221V145.15H202.221ZM202.221 169V170H203.221V169H202.221ZM186.831 169H185.831V170H186.831V169ZM186.831 105.82V104.82H185.831V105.82H186.831ZM225.351 108.43L224.904 109.324L224.91 109.327L225.351 108.43ZM233.271 115.63L232.402 116.124L232.406 116.132L233.271 115.63ZM232.281 136.96L231.473 136.372L231.466 136.382L232.281 136.96ZM221.841 143.98L221.555 143.022L220.337 143.386L220.977 144.483L221.841 143.98ZM236.421 169V170H238.161L237.285 168.497L236.421 169ZM202.221 134.26H201.221V135.26H202.221V134.26ZM218.061 132.19L217.369 131.468L217.362 131.475L217.354 131.483L218.061 132.19ZM218.061 120.67L217.354 121.377L217.362 121.385L217.369 121.392L218.061 120.67ZM202.221 118.6V117.6H201.221V118.6H202.221ZM219.927 168.517L206.787 144.667L205.035 145.633L218.175 169.483L219.927 168.517ZM205.911 144.15H202.221V146.15H205.911V144.15ZM201.221 145.15V169H203.221V145.15H201.221ZM202.221 168H186.831V170H202.221V168ZM187.831 169V105.82H185.831V169H187.831ZM186.831 106.82H212.661V104.82H186.831V106.82ZM212.661 106.82C217.528 106.82 221.596 107.671 224.904 109.324L225.799 107.536C222.146 105.709 217.754 104.82 212.661 104.82V106.82ZM224.91 109.327C228.293 110.99 230.773 113.259 232.402 116.124L234.141 115.136C232.29 111.881 229.49 109.35 225.792 107.533L224.91 109.327ZM232.406 116.132C234.051 118.968 234.881 122.153 234.881 125.71H236.881C236.881 121.827 235.971 118.292 234.136 115.128L232.406 116.132ZM234.881 125.71C234.881 129.705 233.744 133.248 231.473 136.372L233.09 137.548C235.618 134.072 236.881 130.115 236.881 125.71H234.881ZM231.466 136.382C229.278 139.466 226.004 141.693 221.555 143.022L222.128 144.938C226.919 143.507 230.604 141.054 233.097 137.538L231.466 136.382ZM220.977 144.483L235.557 169.503L237.285 168.497L222.705 143.477L220.977 144.483ZM236.421 168H219.051V170H236.421V168ZM202.221 135.26H211.761V133.26H202.221V135.26ZM211.761 135.26C214.728 135.26 217.131 134.534 218.768 132.897L217.354 131.483C216.231 132.606 214.434 133.26 211.761 133.26V135.26ZM218.753 132.912C220.439 131.297 221.221 129.056 221.221 126.34H219.221C219.221 128.664 218.564 130.323 217.369 131.468L218.753 132.912ZM221.221 126.34C221.221 123.727 220.429 121.554 218.753 119.948L217.369 121.392C218.573 122.546 219.221 124.153 219.221 126.34H221.221ZM218.768 119.963C217.131 118.326 214.728 117.6 211.761 117.6V119.6C214.434 119.6 216.231 120.254 217.354 121.377L218.768 119.963ZM211.761 117.6H202.221V119.6H211.761V117.6ZM201.221 118.6V134.26H203.221V118.6H201.221ZM263.632 105.82H264.632V104.82H263.632V105.82ZM263.632 169V170H264.632V169H263.632ZM248.242 169H247.242V170H248.242V169ZM248.242 105.82V104.82H247.242V105.82H248.242ZM262.632 105.82V169H264.632V105.82H262.632ZM263.632 168H248.242V170H263.632V168ZM249.242 169V105.82H247.242V169H249.242ZM248.242 106.82H263.632V104.82H248.242V106.82ZM309.705 169L308.829 169.483L309.114 170H309.705V169ZM296.565 145.15L297.441 144.667L297.156 144.15H296.565V145.15ZM292.875 145.15V144.15H291.875V145.15H292.875ZM292.875 169V170H293.875V169H292.875ZM277.485 169H276.485V170H277.485V169ZM277.485 105.82V104.82H276.485V105.82H277.485ZM316.005 108.43L315.558 109.324L315.564 109.327L316.005 108.43ZM323.925 115.63L323.056 116.124L323.06 116.132L323.925 115.63ZM322.935 136.96L322.126 136.372L322.119 136.382L322.935 136.96ZM312.495 143.98L312.209 143.022L310.991 143.386L311.631 144.483L312.495 143.98ZM327.075 169V170H328.815L327.939 168.497L327.075 169ZM292.875 134.26H291.875V135.26H292.875V134.26ZM308.715 132.19L308.023 131.468L308.016 131.475L308.008 131.483L308.715 132.19ZM308.715 120.67L308.008 121.377L308.016 121.385L308.023 121.392L308.715 120.67ZM292.875 118.6V117.6H291.875V118.6H292.875ZM310.581 168.517L297.441 144.667L295.689 145.633L308.829 169.483L310.581 168.517ZM296.565 144.15H292.875V146.15H296.565V144.15ZM291.875 145.15V169H293.875V145.15H291.875ZM292.875 168H277.485V170H292.875V168ZM278.485 169V105.82H276.485V169H278.485ZM277.485 106.82H303.315V104.82H277.485V106.82ZM303.315 106.82C308.182 106.82 312.25 107.671 315.558 109.324L316.452 107.536C312.8 105.709 308.408 104.82 303.315 104.82V106.82ZM315.564 109.327C318.947 110.99 321.427 113.259 323.056 116.124L324.795 115.136C322.944 111.881 320.144 109.35 316.446 107.533L315.564 109.327ZM323.06 116.132C324.705 118.968 325.535 122.153 325.535 125.71H327.535C327.535 121.827 326.625 118.292 324.79 115.128L323.06 116.132ZM325.535 125.71C325.535 129.705 324.398 133.248 322.126 136.372L323.744 137.548C326.272 134.072 327.535 130.115 327.535 125.71H325.535ZM322.119 136.382C319.932 139.466 316.658 141.693 312.209 143.022L312.781 144.938C317.573 143.507 321.258 141.054 323.751 137.538L322.119 136.382ZM311.631 144.483L326.211 169.503L327.939 168.497L313.359 143.477L311.631 144.483ZM327.075 168H309.705V170H327.075V168ZM292.875 135.26H302.415V133.26H292.875V135.26ZM302.415 135.26C305.382 135.26 307.785 134.534 309.422 132.897L308.008 131.483C306.885 132.606 305.088 133.26 302.415 133.26V135.26ZM309.407 132.912C311.093 131.297 311.875 129.056 311.875 126.34H309.875C309.875 128.664 309.218 130.323 308.023 131.468L309.407 132.912ZM311.875 126.34C311.875 123.727 311.083 121.554 309.407 119.948L308.023 121.392C309.227 122.546 309.875 124.153 309.875 126.34H311.875ZM309.422 119.963C307.785 118.326 305.382 117.6 302.415 117.6V119.6C305.088 119.6 306.885 120.254 308.008 121.377L309.422 119.963ZM302.415 117.6H292.875V119.6H302.415V117.6ZM291.875 118.6V134.26H293.875V118.6H291.875Z" fill="#F4F5FE" mask="url(#path-4-outside-2_1312_1074)"/>
</g>
<line x1="101.291" y1="1.41421" x2="33.0713" y2="69.6343" stroke="white" stroke-width="2" stroke-linecap="round"/>
<line x1="54" y1="32.5343" x2="1.41422" y2="85.1201" stroke="white" stroke-width="2" stroke-linecap="round"/>
<defs>
<clipPath id="clip0_1312_1074">
<rect width="364" height="37" fill="white" transform="translate(46.74 114)"/>
</clipPath>
<clipPath id="clip1_1312_1074">
<rect width="364" height="21" fill="white" transform="translate(46.74 153)"/>
</clipPath>
</defs>
</svg>
